<?xml version="1.0" standalone="no"?>
<!DOCTYPE svg PUBLIC "-//W3C//DTD SVG 20010904//EN"
 "http://www.w3.org/TR/2001/REC-SVG-20010904/DTD/svg10.dtd">
<svg version="1.0" xmlns="http://www.w3.org/2000/svg"
 width="1080.000000pt" height="1080.000000pt" viewBox="0 0 1080.000000 1080.000000"
 preserveAspectRatio="xMidYMid meet">

<g transform="translate(0.000000,1080.000000) scale(0.100000,-0.100000)"
fill="#000000" stroke="none">
<path d="M3780 10532 l0 -260 34 -16 c19 -9 43 -16 54 -16 11 0 37 -7 58 -15
186 -74 305 -186 353 -330 73 -217 41 -435 -85 -590 l-46 -56 47 -96 46 -96
76 149 c41 82 85 159 96 172 19 20 29 22 122 22 88 0 104 -3 123 -20 l22 -21
0 171 c0 168 0 171 25 195 21 22 33 25 100 25 87 0 84 -7 61 120 -43 241 -168
477 -329 626 -188 172 -409 267 -674 289 l-83 7 0 -260z"/>
<path d="M3750 10530 c0 -160 4 -250 10 -250 6 0 10 90 10 250 0 160 -4 250
-10 250 -6 0 -10 -90 -10 -250z"/>
<path d="M3712 9706 c-3 -40 23 -61 64 -53 14 2 27 1 29 -4 3 -4 20 -15 37
-23 17 -9 29 -13 25 -10 -4 4 -3 12 2 18 5 6 12 26 16 44 6 30 4 33 -29 47
-19 8 -59 15 -89 15 l-53 0 -2 -34z"/>
<path d="M5608 9175 l2 -555 55 0 55 0 0 555 0 555 -57 0 -58 0 3 -555z"/>
<path d="M3662 9665 c0 -16 2 -22 5 -12 2 9 2 23 0 30 -3 6 -5 -1 -5 -18z"/>
<path d="M4770 9140 l0 -520 160 0 c87 0 183 5 212 11 143 31 243 130 268 267
23 126 -33 249 -143 319 l-39 25 30 31 c69 73 82 163 36 255 -54 109 -115 132
-350 132 l-174 0 0 -520z m354 396 c52 -22 76 -60 76 -120 -1 -55 -13 -79 -57
-108 -23 -15 -48 -18 -140 -18 l-113 0 0 130 0 130 100 0 c63 0 113 -5 134
-14z m7 -366 c61 -17 102 -52 132 -109 45 -90 33 -183 -34 -256 -53 -58 -115
-77 -240 -73 l-94 3 -3 223 -2 222 102 0 c57 0 119 -5 139 -10z"/>
<path d="M6199 9320 c-68 -12 -139 -52 -191 -108 -69 -74 -91 -123 -96 -218
-6 -103 14 -175 68 -242 81 -103 181 -147 314 -140 101 6 162 33 231 103 75
74 99 130 103 241 4 83 1 96 -25 155 -70 152 -236 239 -404 209z m178 -132
c48 -22 99 -76 119 -124 21 -50 18 -157 -5 -202 -23 -44 -73 -97 -116 -120
-42 -23 -169 -23 -211 0 -102 55 -160 178 -134 279 42 159 202 236 347 167z"/>
<path d="M7000 9303 c-69 -24 -129 -72 -172 -137 -50 -77 -61 -123 -55 -221 5
-94 29 -155 84 -216 121 -134 304 -156 452 -54 l51 35 0 -63 c0 -167 -106
-277 -266 -277 -67 0 -152 31 -189 70 -16 17 -32 30 -36 30 -3 0 -9 -15 -12
-32 -3 -18 -9 -47 -12 -65 -7 -29 -4 -34 33 -57 67 -42 144 -59 241 -53 147 8
261 78 318 196 l28 56 3 398 3 397 -55 0 -56 0 0 -40 c0 -22 -3 -40 -6 -40 -3
0 -21 12 -39 26 -81 61 -216 82 -315 47z m218 -109 c108 -45 173 -178 143
-291 -16 -57 -68 -123 -121 -153 -36 -20 -59 -25 -115 -25 -78 1 -113 15 -165
67 -120 120 -80 337 75 404 41 18 138 17 183 -2z"/>
<path d="M3712 9271 l-3 -39 56 -4 55 -3 0 43 0 42 -53 0 -53 0 -2 -39z"/>
<path d="M3899 9288 c5 -13 40 -86 78 -163 143 -286 193 -391 193 -404 0 -7
-49 -112 -110 -233 l-109 -219 62 3 62 3 257 510 c141 281 257 513 258 518 0
4 -26 7 -59 7 l-59 0 -99 -202 c-55 -112 -106 -218 -113 -235 -7 -18 -16 -33
-20 -33 -4 0 -15 21 -25 48 -10 26 -60 131 -112 235 l-93 187 -60 0 c-58 0
-59 -1 -51 -22z"/>
<path d="M3662 9260 c0 -19 2 -27 5 -17 2 9 2 25 0 35 -3 9 -5 1 -5 -18z"/>
<path d="M4593 9103 c-46 -92 -81 -168 -80 -170 2 -1 40 34 85 79 l82 82 0 88
c0 48 -1 88 -2 88 -2 0 -40 -75 -85 -167z"/>
<path d="M3846 9103 c-4 -4 -19 -7 -34 -8 l-27 0 -3 -253 c-1 -155 1 -251 7
-248 5 4 11 1 13 -5 3 -10 176 -44 183 -37 2 2 22 40 45 86 l41 83 -97 194
c-90 180 -108 207 -128 188z"/>
<path d="M3764 8840 c0 -135 2 -190 3 -122 2 67 2 177 0 245 -1 67 -3 12 -3
-123z"/>
<path d="M4365 8644 c-59 -119 -105 -217 -103 -218 86 -53 244 -213 296 -301
88 -150 140 -322 149 -495 25 -504 -319 -950 -796 -1031 -36 -6 -70 -15 -75
-19 -5 -5 -15 -6 -22 -3 -8 3 -14 -1 -14 -8 0 -11 -3 -11 -10 1 -6 10 -10 -77
-10 -254 l0 -269 93 7 c89 7 250 34 332 56 421 116 785 421 963 810 37 81 102
271 102 298 0 15 -12 17 -87 17 -96 0 -126 12 -159 63 -30 46 -33 89 -17 222
16 127 16 128 -5 155 -14 18 -22 42 -22 68 0 78 108 147 232 147 42 0 58 4 58
14 0 26 -52 171 -90 253 -46 99 -114 204 -192 301 l-59 72 -90 0 c-138 0 -158
17 -159 133 l0 77 -52 34 c-29 18 -76 45 -105 60 l-52 26 -106 -216z"/>
<path d="M5860 7861 c-24 -19 -24 -20 -8 -68 25 -73 29 -163 16 -330 -13 -168
-9 -183 42 -183 19 0 36 9 49 27 l21 26 -31 31 c-30 29 -31 34 -25 86 3 30 11
100 17 155 17 160 -2 276 -45 275 -6 0 -22 -9 -36 -19z"/>
<path d="M3761 7848 c-13 -13 -20 -16 -16 -8 6 12 5 12 -9 -1 -23 -22 -34
-119 -14 -119 10 0 14 8 13 25 -2 14 0 23 5 20 4 -2 22 3 41 12 27 13 40 14
73 5 53 -14 73 1 55 40 -22 50 -107 65 -148 26z"/>
<path d="M5122 7828 c-47 -16 -92 -61 -92 -92 0 -19 5 -26 20 -26 18 0 20 -7
20 -60 0 -33 -7 -105 -15 -159 -8 -55 -12 -108 -9 -118 23 -70 56 -93 136 -92
147 1 266 128 228 243 -13 39 -52 76 -81 76 -25 0 -24 9 3 37 15 16 23 40 26
77 4 48 1 56 -26 87 -28 32 -34 34 -103 36 -41 1 -89 -3 -107 -9z m146 -84
c50 -35 12 -124 -59 -139 -32 -7 -40 -21 -28 -52 7 -20 15 -23 69 -23 51 0 65
-4 85 -25 14 -13 25 -32 25 -42 0 -51 -68 -93 -149 -93 -42 0 -57 5 -77 25
-29 29 -28 14 -3 237 12 105 15 118 33 121 46 9 83 6 104 -9z"/>
<path d="M5190 7680 c0 -28 1 -29 25 -18 14 6 25 19 25 30 0 13 -7 18 -25 18
-21 0 -25 -5 -25 -30z"/>
<path d="M5160 7469 c0 -40 11 -49 61 -49 36 0 54 5 70 21 12 12 17 25 13 29
-5 4 -39 10 -76 12 -59 3 -68 2 -68 -13z"/>
<path d="M3745 7631 c-25 -5 -31 -12 -33 -39 -3 -28 0 -32 21 -32 14 0 38 -3
55 -6 27 -6 31 -3 37 25 11 53 -10 67 -80 52z"/>
<path d="M4523 7623 c-40 -20 -48 -40 -26 -65 12 -14 18 -36 18 -68 0 -42 -5
-54 -34 -84 -26 -27 -43 -36 -67 -36 l-32 0 -11 73 c-13 83 -27 132 -47 165
-28 44 -104 18 -104 -36 0 -15 6 -22 19 -22 34 0 70 -81 87 -193 10 -71 43
-94 96 -66 34 18 31 3 -11 -59 -67 -100 -112 -123 -156 -82 -37 34 -78 0 -67
-55 8 -42 86 -59 141 -30 86 44 201 241 247 421 20 81 22 100 11 122 -15 32
-24 34 -64 15z"/>
<path d="M6485 7624 c-21 -8 -49 -24 -62 -36 -27 -25 -32 -78 -7 -78 11 0 14
-5 9 -17 -19 -47 -26 -87 -19 -116 15 -71 53 -97 138 -97 101 0 175 84 176
198 0 30 -7 70 -16 88 -31 66 -128 91 -219 58z m156 -103 c41 -41 39 -83 -5
-127 -24 -24 -43 -34 -65 -34 -38 0 -86 23 -95 45 -13 35 -6 93 15 119 17 22
28 26 70 26 42 0 55 -5 80 -29z"/>
<path d="M7275 7627 c-45 -18 -70 -38 -94 -77 -28 -47 -27 -98 3 -143 24 -35
24 -36 5 -53 -27 -24 -25 -70 5 -89 13 -8 60 -22 106 -30 89 -16 110 -27 110
-57 0 -30 -63 -52 -130 -45 -58 6 -85 27 -76 60 6 25 -19 32 -48 13 -32 -21
-42 -66 -22 -104 40 -78 228 -70 305 12 24 26 37 89 27 130 -8 31 -46 52 -118
66 -104 21 -101 20 -89 34 6 7 29 16 52 19 75 10 129 68 129 140 0 30 4 37 19
37 22 0 35 28 25 53 -15 41 -139 61 -209 34z m89 -73 c26 -10 20 -70 -9 -99
-60 -60 -166 1 -121 69 8 14 26 27 38 29 37 7 75 7 92 1z"/>
<path d="M3662 7590 c0 -14 2 -19 5 -12 2 6 2 18 0 25 -3 6 -5 1 -5 -13z"/>
<path d="M3664 7295 c0 -88 2 -123 3 -77 2 46 2 118 0 160 -1 42 -3 5 -3 -83z"/>
<path d="M3750 6310 c0 -160 4 -250 10 -250 6 0 10 90 10 250 0 160 -4 250
-10 250 -6 0 -10 -90 -10 -250z"/>
</g>
</svg>
